<svg width="601" height="283" viewBox="0 0 601 283" fill="none" xmlns="http://www.w3.org/2000/svg">
<g filter="url(#filter0_d)">
<rect x="253" y="6" width="338" height="263" fill="white"/>
</g>
<path d="M276.862 108.264C276.573 108.264 276.33 108.166 276.134 107.97C275.938 107.774 275.84 107.531 275.84 107.242C275.84 106.953 275.938 106.71 276.134 106.514C276.33 106.318 276.573 106.22 276.862 106.22C277.142 106.22 277.38 106.318 277.576 106.514C277.772 106.71 277.87 106.953 277.87 107.242C277.87 107.531 277.772 107.774 277.576 107.97C277.38 108.166 277.142 108.264 276.862 108.264ZM277.646 118.512C277.646 119.268 277.455 119.814 277.072 120.15C276.699 120.495 276.153 120.668 275.434 120.668H274.608V119.324H275.154C275.481 119.324 275.709 119.259 275.84 119.128C275.98 119.007 276.05 118.801 276.05 118.512V109.286H277.646V118.512ZM286.811 112.954C286.811 113.243 286.793 113.505 286.755 113.738H280.861C280.908 114.354 281.137 114.849 281.547 115.222C281.958 115.595 282.462 115.782 283.059 115.782C283.918 115.782 284.525 115.423 284.879 114.704H286.601C286.368 115.413 285.943 115.997 285.327 116.454C284.721 116.902 283.965 117.126 283.059 117.126C282.322 117.126 281.659 116.963 281.071 116.636C280.493 116.3 280.035 115.833 279.699 115.236C279.373 114.629 279.209 113.929 279.209 113.136C279.209 112.343 279.368 111.647 279.685 111.05C280.012 110.443 280.465 109.977 281.043 109.65C281.631 109.323 282.303 109.16 283.059 109.16C283.787 109.16 284.436 109.319 285.005 109.636C285.575 109.953 286.018 110.401 286.335 110.98C286.653 111.549 286.811 112.207 286.811 112.954ZM285.145 112.45C285.136 111.862 284.926 111.391 284.515 111.036C284.105 110.681 283.596 110.504 282.989 110.504C282.439 110.504 281.967 110.681 281.575 111.036C281.183 111.381 280.95 111.853 280.875 112.45H285.145ZM294.819 117.126C294.212 117.126 293.666 117.019 293.181 116.804C292.705 116.58 292.327 116.281 292.047 115.908C291.767 115.525 291.617 115.101 291.599 114.634H293.251C293.279 114.961 293.433 115.236 293.713 115.46C294.002 115.675 294.361 115.782 294.791 115.782C295.239 115.782 295.584 115.698 295.827 115.53C296.079 115.353 296.205 115.129 296.205 114.858C296.205 114.569 296.065 114.354 295.785 114.214C295.514 114.074 295.08 113.92 294.483 113.752C293.904 113.593 293.433 113.439 293.069 113.29C292.705 113.141 292.387 112.912 292.117 112.604C291.855 112.296 291.725 111.89 291.725 111.386C291.725 110.975 291.846 110.602 292.089 110.266C292.331 109.921 292.677 109.65 293.125 109.454C293.582 109.258 294.105 109.16 294.693 109.16C295.57 109.16 296.275 109.384 296.807 109.832C297.348 110.271 297.637 110.873 297.675 111.638H296.079C296.051 111.293 295.911 111.017 295.659 110.812C295.407 110.607 295.066 110.504 294.637 110.504C294.217 110.504 293.895 110.583 293.671 110.742C293.447 110.901 293.335 111.111 293.335 111.372C293.335 111.577 293.409 111.75 293.559 111.89C293.708 112.03 293.89 112.142 294.105 112.226C294.319 112.301 294.637 112.399 295.057 112.52C295.617 112.669 296.074 112.823 296.429 112.982C296.793 113.131 297.105 113.355 297.367 113.654C297.628 113.953 297.763 114.349 297.773 114.844C297.773 115.283 297.651 115.675 297.409 116.02C297.166 116.365 296.821 116.636 296.373 116.832C295.934 117.028 295.416 117.126 294.819 117.126ZM306.483 109.286V117H304.887V116.09C304.635 116.407 304.304 116.659 303.893 116.846C303.492 117.023 303.063 117.112 302.605 117.112C301.999 117.112 301.453 116.986 300.967 116.734C300.491 116.482 300.113 116.109 299.833 115.614C299.563 115.119 299.427 114.522 299.427 113.822V109.286H301.009V113.584C301.009 114.275 301.182 114.807 301.527 115.18C301.873 115.544 302.344 115.726 302.941 115.726C303.539 115.726 304.01 115.544 304.355 115.18C304.71 114.807 304.887 114.275 304.887 113.584V109.286H306.483ZM309.401 108.264C309.112 108.264 308.869 108.166 308.673 107.97C308.477 107.774 308.379 107.531 308.379 107.242C308.379 106.953 308.477 106.71 308.673 106.514C308.869 106.318 309.112 106.22 309.401 106.22C309.681 106.22 309.919 106.318 310.115 106.514C310.311 106.71 310.409 106.953 310.409 107.242C310.409 107.531 310.311 107.774 310.115 107.97C309.919 108.166 309.681 108.264 309.401 108.264ZM310.185 109.286V117H308.589V109.286H310.185ZM315.08 117.126C314.474 117.126 313.928 117.019 313.442 116.804C312.966 116.58 312.588 116.281 312.308 115.908C312.028 115.525 311.879 115.101 311.86 114.634H313.512C313.54 114.961 313.694 115.236 313.974 115.46C314.264 115.675 314.623 115.782 315.052 115.782C315.5 115.782 315.846 115.698 316.088 115.53C316.34 115.353 316.466 115.129 316.466 114.858C316.466 114.569 316.326 114.354 316.046 114.214C315.776 114.074 315.342 113.92 314.744 113.752C314.166 113.593 313.694 113.439 313.33 113.29C312.966 113.141 312.649 112.912 312.378 112.604C312.117 112.296 311.986 111.89 311.986 111.386C311.986 110.975 312.108 110.602 312.35 110.266C312.593 109.921 312.938 109.65 313.386 109.454C313.844 109.258 314.366 109.16 314.954 109.16C315.832 109.16 316.536 109.384 317.068 109.832C317.61 110.271 317.899 110.873 317.936 111.638H316.34C316.312 111.293 316.172 111.017 315.92 110.812C315.668 110.607 315.328 110.504 314.898 110.504C314.478 110.504 314.156 110.583 313.932 110.742C313.708 110.901 313.596 111.111 313.596 111.372C313.596 111.577 313.671 111.75 313.82 111.89C313.97 112.03 314.152 112.142 314.366 112.226C314.581 112.301 314.898 112.399 315.318 112.52C315.878 112.669 316.336 112.823 316.69 112.982C317.054 113.131 317.367 113.355 317.628 113.654C317.89 113.953 318.025 114.349 318.034 114.844C318.034 115.283 317.913 115.675 317.67 116.02C317.428 116.365 317.082 116.636 316.634 116.832C316.196 117.028 315.678 117.126 315.08 117.126ZM330.382 109.286V117H328.786V116.09C328.534 116.407 328.202 116.659 327.792 116.846C327.39 117.023 326.961 117.112 326.504 117.112C325.897 117.112 325.351 116.986 324.866 116.734C324.39 116.482 324.012 116.109 323.732 115.614C323.461 115.119 323.326 114.522 323.326 113.822V109.286H324.908V113.584C324.908 114.275 325.08 114.807 325.426 115.18C325.771 115.544 326.242 115.726 326.84 115.726C327.437 115.726 327.908 115.544 328.254 115.18C328.608 114.807 328.786 114.275 328.786 113.584V109.286H330.382ZM336.38 109.16C336.986 109.16 337.528 109.286 338.004 109.538C338.489 109.79 338.867 110.163 339.138 110.658C339.408 111.153 339.544 111.75 339.544 112.45V117H337.962V112.688C337.962 111.997 337.789 111.47 337.444 111.106C337.098 110.733 336.627 110.546 336.03 110.546C335.432 110.546 334.956 110.733 334.602 111.106C334.256 111.47 334.084 111.997 334.084 112.688V117H332.488V109.286H334.084V110.168C334.345 109.851 334.676 109.603 335.078 109.426C335.488 109.249 335.922 109.16 336.38 109.16ZM346.812 110.42C347.083 110.065 347.451 109.767 347.918 109.524C348.385 109.281 348.912 109.16 349.5 109.16C350.172 109.16 350.783 109.328 351.334 109.664C351.894 109.991 352.333 110.453 352.65 111.05C352.967 111.647 353.126 112.333 353.126 113.108C353.126 113.883 352.967 114.578 352.65 115.194C352.333 115.801 351.894 116.277 351.334 116.622C350.783 116.958 350.172 117.126 349.5 117.126C348.912 117.126 348.389 117.009 347.932 116.776C347.475 116.533 347.101 116.235 346.812 115.88V120.668H345.216V109.286H346.812V110.42ZM351.502 113.108C351.502 112.576 351.39 112.119 351.166 111.736C350.951 111.344 350.662 111.05 350.298 110.854C349.943 110.649 349.561 110.546 349.15 110.546C348.749 110.546 348.366 110.649 348.002 110.854C347.647 111.059 347.358 111.358 347.134 111.75C346.919 112.142 346.812 112.604 346.812 113.136C346.812 113.668 346.919 114.135 347.134 114.536C347.358 114.928 347.647 115.227 348.002 115.432C348.366 115.637 348.749 115.74 349.15 115.74C349.561 115.74 349.943 115.637 350.298 115.432C350.662 115.217 350.951 114.909 351.166 114.508C351.39 114.107 351.502 113.64 351.502 113.108ZM354.172 113.108C354.172 112.333 354.331 111.647 354.648 111.05C354.975 110.453 355.414 109.991 355.964 109.664C356.524 109.328 357.14 109.16 357.812 109.16C358.419 109.16 358.946 109.281 359.394 109.524C359.852 109.757 360.216 110.051 360.486 110.406V109.286H362.096V117H360.486V115.852C360.216 116.216 359.847 116.519 359.38 116.762C358.914 117.005 358.382 117.126 357.784 117.126C357.122 117.126 356.515 116.958 355.964 116.622C355.414 116.277 354.975 115.801 354.648 115.194C354.331 114.578 354.172 113.883 354.172 113.108ZM360.486 113.136C360.486 112.604 360.374 112.142 360.15 111.75C359.936 111.358 359.651 111.059 359.296 110.854C358.942 110.649 358.559 110.546 358.148 110.546C357.738 110.546 357.355 110.649 357 110.854C356.646 111.05 356.356 111.344 356.132 111.736C355.918 112.119 355.81 112.576 355.81 113.108C355.81 113.64 355.918 114.107 356.132 114.508C356.356 114.909 356.646 115.217 357 115.432C357.364 115.637 357.747 115.74 358.148 115.74C358.559 115.74 358.942 115.637 359.296 115.432C359.651 115.227 359.936 114.928 360.15 114.536C360.374 114.135 360.486 113.668 360.486 113.136ZM365.789 110.406C366.022 110.014 366.33 109.711 366.713 109.496C367.105 109.272 367.567 109.16 368.099 109.16V110.812H367.693C367.067 110.812 366.591 110.971 366.265 111.288C365.947 111.605 365.789 112.156 365.789 112.94V117H364.193V109.286H365.789V110.406ZM369.034 113.108C369.034 112.333 369.192 111.647 369.51 111.05C369.836 110.453 370.275 109.991 370.826 109.664C371.386 109.328 372.002 109.16 372.674 109.16C373.28 109.16 373.808 109.281 374.256 109.524C374.713 109.757 375.077 110.051 375.348 110.406V109.286H376.958V117H375.348V115.852C375.077 116.216 374.708 116.519 374.242 116.762C373.775 117.005 373.243 117.126 372.646 117.126C371.983 117.126 371.376 116.958 370.826 116.622C370.275 116.277 369.836 115.801 369.51 115.194C369.192 114.578 369.034 113.883 369.034 113.108ZM375.348 113.136C375.348 112.604 375.236 112.142 375.012 111.75C374.797 111.358 374.512 111.059 374.158 110.854C373.803 110.649 373.42 110.546 373.01 110.546C372.599 110.546 372.216 110.649 371.862 110.854C371.507 111.05 371.218 111.344 370.994 111.736C370.779 112.119 370.672 112.576 370.672 113.108C370.672 113.64 370.779 114.107 370.994 114.508C371.218 114.909 371.507 115.217 371.862 115.432C372.226 115.637 372.608 115.74 373.01 115.74C373.42 115.74 373.803 115.637 374.158 115.432C374.512 115.227 374.797 114.928 375.012 114.536C375.236 114.135 375.348 113.668 375.348 113.136ZM382.162 109.16C382.759 109.16 383.287 109.281 383.744 109.524C384.211 109.757 384.575 110.051 384.836 110.406V109.286H386.446V117.126C386.446 117.835 386.297 118.465 385.998 119.016C385.699 119.576 385.265 120.015 384.696 120.332C384.136 120.649 383.464 120.808 382.68 120.808C381.635 120.808 380.767 120.561 380.076 120.066C379.385 119.581 378.993 118.918 378.9 118.078H380.482C380.603 118.479 380.86 118.801 381.252 119.044C381.653 119.296 382.129 119.422 382.68 119.422C383.324 119.422 383.842 119.226 384.234 118.834C384.635 118.442 384.836 117.873 384.836 117.126V115.838C384.565 116.202 384.197 116.51 383.73 116.762C383.273 117.005 382.75 117.126 382.162 117.126C381.49 117.126 380.874 116.958 380.314 116.622C379.763 116.277 379.325 115.801 378.998 115.194C378.681 114.578 378.522 113.883 378.522 113.108C378.522 112.333 378.681 111.647 378.998 111.05C379.325 110.453 379.763 109.991 380.314 109.664C380.874 109.328 381.49 109.16 382.162 109.16ZM384.836 113.136C384.836 112.604 384.724 112.142 384.5 111.75C384.285 111.358 384.001 111.059 383.646 110.854C383.291 110.649 382.909 110.546 382.498 110.546C382.087 110.546 381.705 110.649 381.35 110.854C380.995 111.05 380.706 111.344 380.482 111.736C380.267 112.119 380.16 112.576 380.16 113.108C380.16 113.64 380.267 114.107 380.482 114.508C380.706 114.909 380.995 115.217 381.35 115.432C381.714 115.637 382.097 115.74 382.498 115.74C382.909 115.74 383.291 115.637 383.646 115.432C384.001 115.227 384.285 114.928 384.5 114.536C384.724 114.135 384.836 113.668 384.836 113.136ZM390.138 110.406C390.372 110.014 390.68 109.711 391.062 109.496C391.454 109.272 391.916 109.16 392.448 109.16V110.812H392.042C391.417 110.812 390.941 110.971 390.614 111.288C390.297 111.605 390.138 112.156 390.138 112.94V117H388.542V109.286H390.138V110.406ZM393.383 113.108C393.383 112.333 393.542 111.647 393.859 111.05C394.186 110.453 394.625 109.991 395.175 109.664C395.735 109.328 396.351 109.16 397.023 109.16C397.63 109.16 398.157 109.281 398.605 109.524C399.063 109.757 399.427 110.051 399.697 110.406V109.286H401.307V117H399.697V115.852C399.427 116.216 399.058 116.519 398.591 116.762C398.125 117.005 397.593 117.126 396.995 117.126C396.333 117.126 395.726 116.958 395.175 116.622C394.625 116.277 394.186 115.801 393.859 115.194C393.542 114.578 393.383 113.883 393.383 113.108ZM399.697 113.136C399.697 112.604 399.585 112.142 399.361 111.75C399.147 111.358 398.862 111.059 398.507 110.854C398.153 110.649 397.77 110.546 397.359 110.546C396.949 110.546 396.566 110.649 396.211 110.854C395.857 111.05 395.567 111.344 395.343 111.736C395.129 112.119 395.021 112.576 395.021 113.108C395.021 113.64 395.129 114.107 395.343 114.508C395.567 114.909 395.857 115.217 396.211 115.432C396.575 115.637 396.958 115.74 397.359 115.74C397.77 115.74 398.153 115.637 398.507 115.432C398.862 115.227 399.147 114.928 399.361 114.536C399.585 114.135 399.697 113.668 399.697 113.136ZM405 110.42C405.27 110.065 405.639 109.767 406.106 109.524C406.572 109.281 407.1 109.16 407.688 109.16C408.36 109.16 408.971 109.328 409.522 109.664C410.082 109.991 410.52 110.453 410.838 111.05C411.155 111.647 411.314 112.333 411.314 113.108C411.314 113.883 411.155 114.578 410.838 115.194C410.52 115.801 410.082 116.277 409.522 116.622C408.971 116.958 408.36 117.126 407.688 117.126C407.1 117.126 406.577 117.009 406.12 116.776C405.662 116.533 405.289 116.235 405 115.88V120.668H403.404V109.286H405V110.42ZM409.69 113.108C409.69 112.576 409.578 112.119 409.354 111.736C409.139 111.344 408.85 111.05 408.486 110.854C408.131 110.649 407.748 110.546 407.338 110.546C406.936 110.546 406.554 110.649 406.19 110.854C405.835 111.059 405.546 111.358 405.322 111.75C405.107 112.142 405 112.604 405 113.136C405 113.668 405.107 114.135 405.322 114.536C405.546 114.928 405.835 115.227 406.19 115.432C406.554 115.637 406.936 115.74 407.338 115.74C407.748 115.74 408.131 115.637 408.486 115.432C408.85 115.217 409.139 114.909 409.354 114.508C409.578 114.107 409.69 113.64 409.69 113.108ZM416.882 109.16C417.47 109.16 417.992 109.286 418.45 109.538C418.916 109.79 419.28 110.163 419.542 110.658C419.812 111.153 419.948 111.75 419.948 112.45V117H418.366V112.688C418.366 111.997 418.193 111.47 417.848 111.106C417.502 110.733 417.031 110.546 416.434 110.546C415.836 110.546 415.36 110.733 415.006 111.106C414.66 111.47 414.488 111.997 414.488 112.688V117H412.892V106.64H414.488V110.182C414.758 109.855 415.099 109.603 415.51 109.426C415.93 109.249 416.387 109.16 416.882 109.16ZM429.054 112.954C429.054 113.243 429.035 113.505 428.998 113.738H423.104C423.15 114.354 423.379 114.849 423.79 115.222C424.2 115.595 424.704 115.782 425.302 115.782C426.16 115.782 426.767 115.423 427.122 114.704H428.844C428.61 115.413 428.186 115.997 427.57 116.454C426.963 116.902 426.207 117.126 425.302 117.126C424.564 117.126 423.902 116.963 423.314 116.636C422.735 116.3 422.278 115.833 421.942 115.236C421.615 114.629 421.452 113.929 421.452 113.136C421.452 112.343 421.61 111.647 421.928 111.05C422.254 110.443 422.707 109.977 423.286 109.65C423.874 109.323 424.546 109.16 425.302 109.16C426.03 109.16 426.678 109.319 427.248 109.636C427.817 109.953 428.26 110.401 428.578 110.98C428.895 111.549 429.054 112.207 429.054 112.954ZM427.388 112.45C427.378 111.862 427.168 111.391 426.758 111.036C426.347 110.681 425.838 110.504 425.232 110.504C424.681 110.504 424.21 110.681 423.818 111.036C423.426 111.381 423.192 111.853 423.118 112.45H427.388ZM433.424 117.126C432.818 117.126 432.272 117.019 431.786 116.804C431.31 116.58 430.932 116.281 430.652 115.908C430.372 115.525 430.223 115.101 430.204 114.634H431.856C431.884 114.961 432.038 115.236 432.318 115.46C432.608 115.675 432.967 115.782 433.396 115.782C433.844 115.782 434.19 115.698 434.432 115.53C434.684 115.353 434.81 115.129 434.81 114.858C434.81 114.569 434.67 114.354 434.39 114.214C434.12 114.074 433.686 113.92 433.088 113.752C432.51 113.593 432.038 113.439 431.674 113.29C431.31 113.141 430.993 112.912 430.722 112.604C430.461 112.296 430.33 111.89 430.33 111.386C430.33 110.975 430.452 110.602 430.694 110.266C430.937 109.921 431.282 109.65 431.73 109.454C432.188 109.258 432.71 109.16 433.298 109.16C434.176 109.16 434.88 109.384 435.412 109.832C435.954 110.271 436.243 110.873 436.28 111.638H434.684C434.656 111.293 434.516 111.017 434.264 110.812C434.012 110.607 433.672 110.504 433.242 110.504C432.822 110.504 432.5 110.583 432.276 110.742C432.052 110.901 431.94 111.111 431.94 111.372C431.94 111.577 432.015 111.75 432.164 111.89C432.314 112.03 432.496 112.142 432.71 112.226C432.925 112.301 433.242 112.399 433.662 112.52C434.222 112.669 434.68 112.823 435.034 112.982C435.398 113.131 435.711 113.355 435.972 113.654C436.234 113.953 436.369 114.349 436.378 114.844C436.378 115.283 436.257 115.675 436.014 116.02C435.772 116.365 435.426 116.636 434.978 116.832C434.54 117.028 434.022 117.126 433.424 117.126ZM441.207 113.136C441.207 112.343 441.366 111.647 441.683 111.05C442.01 110.443 442.458 109.977 443.027 109.65C443.597 109.323 444.25 109.16 444.987 109.16C445.921 109.16 446.691 109.384 447.297 109.832C447.913 110.271 448.329 110.901 448.543 111.722H446.821C446.681 111.339 446.457 111.041 446.149 110.826C445.841 110.611 445.454 110.504 444.987 110.504C444.334 110.504 443.811 110.737 443.419 111.204C443.037 111.661 442.845 112.305 442.845 113.136C442.845 113.967 443.037 114.615 443.419 115.082C443.811 115.549 444.334 115.782 444.987 115.782C445.911 115.782 446.523 115.376 446.821 114.564H448.543C448.319 115.348 447.899 115.973 447.283 116.44C446.667 116.897 445.902 117.126 444.987 117.126C444.25 117.126 443.597 116.963 443.027 116.636C442.458 116.3 442.01 115.833 441.683 115.236C441.366 114.629 441.207 113.929 441.207 113.136ZM453.48 117.126C452.752 117.126 452.094 116.963 451.506 116.636C450.918 116.3 450.456 115.833 450.12 115.236C449.784 114.629 449.616 113.929 449.616 113.136C449.616 112.352 449.789 111.657 450.134 111.05C450.479 110.443 450.951 109.977 451.548 109.65C452.145 109.323 452.813 109.16 453.55 109.16C454.287 109.16 454.955 109.323 455.552 109.65C456.149 109.977 456.621 110.443 456.966 111.05C457.311 111.657 457.484 112.352 457.484 113.136C457.484 113.92 457.307 114.615 456.952 115.222C456.597 115.829 456.112 116.3 455.496 116.636C454.889 116.963 454.217 117.126 453.48 117.126ZM453.48 115.74C453.891 115.74 454.273 115.642 454.628 115.446C454.992 115.25 455.286 114.956 455.51 114.564C455.734 114.172 455.846 113.696 455.846 113.136C455.846 112.576 455.739 112.105 455.524 111.722C455.309 111.33 455.025 111.036 454.67 110.84C454.315 110.644 453.933 110.546 453.522 110.546C453.111 110.546 452.729 110.644 452.374 110.84C452.029 111.036 451.753 111.33 451.548 111.722C451.343 112.105 451.24 112.576 451.24 113.136C451.24 113.967 451.45 114.611 451.87 115.068C452.299 115.516 452.836 115.74 453.48 115.74ZM468.4 109.16C469.006 109.16 469.548 109.286 470.024 109.538C470.509 109.79 470.887 110.163 471.158 110.658C471.438 111.153 471.578 111.75 471.578 112.45V117H469.996V112.688C469.996 111.997 469.823 111.47 469.478 111.106C469.132 110.733 468.661 110.546 468.064 110.546C467.466 110.546 466.99 110.733 466.636 111.106C466.29 111.47 466.118 111.997 466.118 112.688V117H464.536V112.688C464.536 111.997 464.363 111.47 464.018 111.106C463.672 110.733 463.201 110.546 462.604 110.546C462.006 110.546 461.53 110.733 461.176 111.106C460.83 111.47 460.658 111.997 460.658 112.688V117H459.062V109.286H460.658V110.168C460.919 109.851 461.25 109.603 461.652 109.426C462.053 109.249 462.482 109.16 462.94 109.16C463.556 109.16 464.106 109.291 464.592 109.552C465.077 109.813 465.45 110.191 465.712 110.686C465.945 110.219 466.309 109.851 466.804 109.58C467.298 109.3 467.83 109.16 468.4 109.16ZM475.205 110.42C475.475 110.065 475.844 109.767 476.311 109.524C476.777 109.281 477.305 109.16 477.893 109.16C478.565 109.16 479.176 109.328 479.727 109.664C480.287 109.991 480.725 110.453 481.043 111.05C481.36 111.647 481.519 112.333 481.519 113.108C481.519 113.883 481.36 114.578 481.043 115.194C480.725 115.801 480.287 116.277 479.727 116.622C479.176 116.958 478.565 117.126 477.893 117.126C477.305 117.126 476.782 117.009 476.325 116.776C475.867 116.533 475.494 116.235 475.205 115.88V120.668H473.609V109.286H475.205V110.42ZM479.895 113.108C479.895 112.576 479.783 112.119 479.559 111.736C479.344 111.344 479.055 111.05 478.691 110.854C478.336 110.649 477.953 110.546 477.543 110.546C477.141 110.546 476.759 110.649 476.395 110.854C476.04 111.059 475.751 111.358 475.527 111.75C475.312 112.142 475.205 112.604 475.205 113.136C475.205 113.668 475.312 114.135 475.527 114.536C475.751 114.928 476.04 115.227 476.395 115.432C476.759 115.637 477.141 115.74 477.543 115.74C477.953 115.74 478.336 115.637 478.691 115.432C479.055 115.217 479.344 114.909 479.559 114.508C479.783 114.107 479.895 113.64 479.895 113.108ZM486.443 117.126C485.715 117.126 485.057 116.963 484.469 116.636C483.881 116.3 483.419 115.833 483.083 115.236C482.747 114.629 482.579 113.929 482.579 113.136C482.579 112.352 482.752 111.657 483.097 111.05C483.442 110.443 483.914 109.977 484.511 109.65C485.108 109.323 485.776 109.16 486.513 109.16C487.25 109.16 487.918 109.323 488.515 109.65C489.112 109.977 489.584 110.443 489.929 111.05C490.274 111.657 490.447 112.352 490.447 113.136C490.447 113.92 490.27 114.615 489.915 115.222C489.56 115.829 489.075 116.3 488.459 116.636C487.852 116.963 487.18 117.126 486.443 117.126ZM486.443 115.74C486.854 115.74 487.236 115.642 487.591 115.446C487.955 115.25 488.249 114.956 488.473 114.564C488.697 114.172 488.809 113.696 488.809 113.136C488.809 112.576 488.702 112.105 488.487 111.722C488.272 111.33 487.988 111.036 487.633 110.84C487.278 110.644 486.896 110.546 486.485 110.546C486.074 110.546 485.692 110.644 485.337 110.84C484.992 111.036 484.716 111.33 484.511 111.722C484.306 112.105 484.203 112.576 484.203 113.136C484.203 113.967 484.413 114.611 484.833 115.068C485.262 115.516 485.799 115.74 486.443 115.74ZM494.825 117.126C494.218 117.126 493.672 117.019 493.187 116.804C492.711 116.58 492.333 116.281 492.053 115.908C491.773 115.525 491.623 115.101 491.605 114.634H493.257C493.285 114.961 493.439 115.236 493.719 115.46C494.008 115.675 494.367 115.782 494.797 115.782C495.245 115.782 495.59 115.698 495.833 115.53C496.085 115.353 496.211 115.129 496.211 114.858C496.211 114.569 496.071 114.354 495.791 114.214C495.52 114.074 495.086 113.92 494.489 113.752C493.91 113.593 493.439 113.439 493.075 113.29C492.711 113.141 492.393 112.912 492.123 112.604C491.861 112.296 491.731 111.89 491.731 111.386C491.731 110.975 491.852 110.602 492.095 110.266C492.337 109.921 492.683 109.65 493.131 109.454C493.588 109.258 494.111 109.16 494.699 109.16C495.576 109.16 496.281 109.384 496.813 109.832C497.354 110.271 497.643 110.873 497.681 111.638H496.085C496.057 111.293 495.917 111.017 495.665 110.812C495.413 110.607 495.072 110.504 494.643 110.504C494.223 110.504 493.901 110.583 493.677 110.742C493.453 110.901 493.341 111.111 493.341 111.372C493.341 111.577 493.415 111.75 493.565 111.89C493.714 112.03 493.896 112.142 494.111 112.226C494.325 112.301 494.643 112.399 495.063 112.52C495.623 112.669 496.08 112.823 496.435 112.982C496.799 113.131 497.111 113.355 497.373 113.654C497.634 113.953 497.769 114.349 497.779 114.844C497.779 115.283 497.657 115.675 497.415 116.02C497.172 116.365 496.827 116.636 496.379 116.832C495.94 117.028 495.422 117.126 494.825 117.126ZM506.573 112.954C506.573 113.243 506.554 113.505 506.517 113.738H500.623C500.67 114.354 500.898 114.849 501.309 115.222C501.72 115.595 502.224 115.782 502.821 115.782C503.68 115.782 504.286 115.423 504.641 114.704H506.363C506.13 115.413 505.705 115.997 505.089 116.454C504.482 116.902 503.726 117.126 502.821 117.126C502.084 117.126 501.421 116.963 500.833 116.636C500.254 116.3 499.797 115.833 499.461 115.236C499.134 114.629 498.971 113.929 498.971 113.136C498.971 112.343 499.13 111.647 499.447 111.05C499.774 110.443 500.226 109.977 500.805 109.65C501.393 109.323 502.065 109.16 502.821 109.16C503.549 109.16 504.198 109.319 504.767 109.636C505.336 109.953 505.78 110.401 506.097 110.98C506.414 111.549 506.573 112.207 506.573 112.954ZM504.907 112.45C504.898 111.862 504.688 111.391 504.277 111.036C503.866 110.681 503.358 110.504 502.751 110.504C502.2 110.504 501.729 110.681 501.337 111.036C500.945 111.381 500.712 111.853 500.637 112.45H504.907ZM504.221 107.214L501.127 108.74V107.564L504.221 105.856V107.214ZM275.518 134.108C275.518 133.333 275.677 132.647 275.994 132.05C276.321 131.453 276.759 130.991 277.31 130.664C277.87 130.328 278.491 130.16 279.172 130.16C279.676 130.16 280.171 130.272 280.656 130.496C281.151 130.711 281.543 131 281.832 131.364V127.64H283.442V138H281.832V136.838C281.571 137.211 281.207 137.519 280.74 137.762C280.283 138.005 279.755 138.126 279.158 138.126C278.486 138.126 277.87 137.958 277.31 137.622C276.759 137.277 276.321 136.801 275.994 136.194C275.677 135.578 275.518 134.883 275.518 134.108ZM281.832 134.136C281.832 133.604 281.72 133.142 281.496 132.75C281.281 132.358 280.997 132.059 280.642 131.854C280.287 131.649 279.905 131.546 279.494 131.546C279.083 131.546 278.701 131.649 278.346 131.854C277.991 132.05 277.702 132.344 277.478 132.736C277.263 133.119 277.156 133.576 277.156 134.108C277.156 134.64 277.263 135.107 277.478 135.508C277.702 135.909 277.991 136.217 278.346 136.432C278.71 136.637 279.093 136.74 279.494 136.74C279.905 136.74 280.287 136.637 280.642 136.432C280.997 136.227 281.281 135.928 281.496 135.536C281.72 135.135 281.832 134.668 281.832 134.136ZM292.608 133.954C292.608 134.243 292.59 134.505 292.552 134.738H286.658C286.705 135.354 286.934 135.849 287.344 136.222C287.755 136.595 288.259 136.782 288.856 136.782C289.715 136.782 290.322 136.423 290.676 135.704H292.398C292.165 136.413 291.74 136.997 291.124 137.454C290.518 137.902 289.762 138.126 288.856 138.126C288.119 138.126 287.456 137.963 286.868 137.636C286.29 137.3 285.832 136.833 285.496 136.236C285.17 135.629 285.006 134.929 285.006 134.136C285.006 133.343 285.165 132.647 285.482 132.05C285.809 131.443 286.262 130.977 286.84 130.65C287.428 130.323 288.1 130.16 288.856 130.16C289.584 130.16 290.233 130.319 290.802 130.636C291.372 130.953 291.815 131.401 292.132 131.98C292.45 132.549 292.608 133.207 292.608 133.954ZM290.942 133.45C290.933 132.862 290.723 132.391 290.312 132.036C289.902 131.681 289.393 131.504 288.786 131.504C288.236 131.504 287.764 131.681 287.372 132.036C286.98 132.381 286.747 132.853 286.672 133.45H290.942ZM297.284 134.108C297.284 133.333 297.442 132.647 297.76 132.05C298.086 131.453 298.525 130.991 299.076 130.664C299.636 130.328 300.256 130.16 300.938 130.16C301.442 130.16 301.936 130.272 302.422 130.496C302.916 130.711 303.308 131 303.598 131.364V127.64H305.208V138H303.598V136.838C303.336 137.211 302.972 137.519 302.506 137.762C302.048 138.005 301.521 138.126 300.924 138.126C300.252 138.126 299.636 137.958 299.076 137.622C298.525 137.277 298.086 136.801 297.76 136.194C297.442 135.578 297.284 134.883 297.284 134.108ZM303.598 134.136C303.598 133.604 303.486 133.142 303.262 132.75C303.047 132.358 302.762 132.059 302.408 131.854C302.053 131.649 301.67 131.546 301.26 131.546C300.849 131.546 300.466 131.649 300.112 131.854C299.757 132.05 299.468 132.344 299.244 132.736C299.029 133.119 298.922 133.576 298.922 134.108C298.922 134.64 299.029 135.107 299.244 135.508C299.468 135.909 299.757 136.217 300.112 136.432C300.476 136.637 300.858 136.74 301.26 136.74C301.67 136.74 302.053 136.637 302.408 136.432C302.762 136.227 303.047 135.928 303.262 135.536C303.486 135.135 303.598 134.668 303.598 134.136ZM314.374 133.954C314.374 134.243 314.355 134.505 314.318 134.738H308.424C308.471 135.354 308.699 135.849 309.11 136.222C309.521 136.595 310.025 136.782 310.622 136.782C311.481 136.782 312.087 136.423 312.442 135.704H314.164C313.931 136.413 313.506 136.997 312.89 137.454C312.283 137.902 311.527 138.126 310.622 138.126C309.885 138.126 309.222 137.963 308.634 137.636C308.055 137.3 307.598 136.833 307.262 136.236C306.935 135.629 306.772 134.929 306.772 134.136C306.772 133.343 306.931 132.647 307.248 132.05C307.575 131.443 308.027 130.977 308.606 130.65C309.194 130.323 309.866 130.16 310.622 130.16C311.35 130.16 311.999 130.319 312.568 130.636C313.137 130.953 313.581 131.401 313.898 131.98C314.215 132.549 314.374 133.207 314.374 133.954ZM312.708 133.45C312.699 132.862 312.489 132.391 312.078 132.036C311.667 131.681 311.159 131.504 310.552 131.504C310.001 131.504 309.53 131.681 309.138 132.036C308.746 132.381 308.513 132.853 308.438 133.45H312.708ZM322.931 130.286V138H321.335V137.09C321.083 137.407 320.751 137.659 320.341 137.846C319.939 138.023 319.51 138.112 319.053 138.112C318.446 138.112 317.9 137.986 317.415 137.734C316.939 137.482 316.561 137.109 316.281 136.614C316.01 136.119 315.875 135.522 315.875 134.822V130.286H317.457V134.584C317.457 135.275 317.629 135.807 317.975 136.18C318.32 136.544 318.791 136.726 319.389 136.726C319.986 136.726 320.457 136.544 320.803 136.18C321.157 135.807 321.335 135.275 321.335 134.584V130.286H322.931ZM328.34 134.094L330.832 138H329.026L327.36 135.382L325.792 138H324.126L326.618 134.206L324.126 130.286H325.932L327.598 132.904L329.166 130.286H330.832L328.34 134.094ZM337.255 127.64V138H335.659V127.64H337.255ZM340.163 129.264C339.873 129.264 339.631 129.166 339.435 128.97C339.239 128.774 339.141 128.531 339.141 128.242C339.141 127.953 339.239 127.71 339.435 127.514C339.631 127.318 339.873 127.22 340.163 127.22C340.443 127.22 340.681 127.318 340.877 127.514C341.073 127.71 341.171 127.953 341.171 128.242C341.171 128.531 341.073 128.774 340.877 128.97C340.681 129.166 340.443 129.264 340.163 129.264ZM340.947 130.286V138H339.351V130.286H340.947ZM346.15 130.16C346.748 130.16 347.275 130.281 347.732 130.524C348.199 130.757 348.563 131.051 348.824 131.406V130.286H350.434V138.126C350.434 138.835 350.285 139.465 349.986 140.016C349.688 140.576 349.254 141.015 348.684 141.332C348.124 141.649 347.452 141.808 346.668 141.808C345.623 141.808 344.755 141.561 344.064 141.066C343.374 140.581 342.982 139.918 342.888 139.078H344.47C344.592 139.479 344.848 139.801 345.24 140.044C345.642 140.296 346.118 140.422 346.668 140.422C347.312 140.422 347.83 140.226 348.222 139.834C348.624 139.442 348.824 138.873 348.824 138.126V136.838C348.554 137.202 348.185 137.51 347.718 137.762C347.261 138.005 346.738 138.126 346.15 138.126C345.478 138.126 344.862 137.958 344.302 137.622C343.752 137.277 343.313 136.801 342.986 136.194C342.669 135.578 342.51 134.883 342.51 134.108C342.51 133.333 342.669 132.647 342.986 132.05C343.313 131.453 343.752 130.991 344.302 130.664C344.862 130.328 345.478 130.16 346.15 130.16ZM348.824 134.136C348.824 133.604 348.712 133.142 348.488 132.75C348.274 132.358 347.989 132.059 347.634 131.854C347.28 131.649 346.897 131.546 346.486 131.546C346.076 131.546 345.693 131.649 345.338 131.854C344.984 132.05 344.694 132.344 344.47 132.736C344.256 133.119 344.148 133.576 344.148 134.108C344.148 134.64 344.256 135.107 344.47 135.508C344.694 135.909 344.984 136.217 345.338 136.432C345.702 136.637 346.085 136.74 346.486 136.74C346.897 136.74 347.28 136.637 347.634 136.432C347.989 136.227 348.274 135.928 348.488 135.536C348.712 135.135 348.824 134.668 348.824 134.136ZM356.422 130.16C357.029 130.16 357.57 130.286 358.046 130.538C358.532 130.79 358.91 131.163 359.18 131.658C359.451 132.153 359.586 132.75 359.586 133.45V138H358.004V133.688C358.004 132.997 357.832 132.47 357.486 132.106C357.141 131.733 356.67 131.546 356.072 131.546C355.475 131.546 354.999 131.733 354.644 132.106C354.299 132.47 354.126 132.997 354.126 133.688V138H352.53V130.286H354.126V131.168C354.388 130.851 354.719 130.603 355.12 130.426C355.531 130.249 355.965 130.16 356.422 130.16ZM368.692 133.954C368.692 134.243 368.674 134.505 368.636 134.738H362.742C362.789 135.354 363.018 135.849 363.428 136.222C363.839 136.595 364.343 136.782 364.94 136.782C365.799 136.782 366.406 136.423 366.76 135.704H368.482C368.249 136.413 367.824 136.997 367.208 137.454C366.602 137.902 365.846 138.126 364.94 138.126C364.203 138.126 363.54 137.963 362.952 137.636C362.374 137.3 361.916 136.833 361.58 136.236C361.254 135.629 361.09 134.929 361.09 134.136C361.09 133.343 361.249 132.647 361.566 132.05C361.893 131.443 362.346 130.977 362.924 130.65C363.512 130.323 364.184 130.16 364.94 130.16C365.668 130.16 366.317 130.319 366.886 130.636C367.456 130.953 367.899 131.401 368.216 131.98C368.534 132.549 368.692 133.207 368.692 133.954ZM367.026 133.45C367.017 132.862 366.807 132.391 366.396 132.036C365.986 131.681 365.477 131.504 364.87 131.504C364.32 131.504 363.848 131.681 363.456 132.036C363.064 132.381 362.831 132.853 362.756 133.45H367.026ZM373.063 138.126C372.456 138.126 371.91 138.019 371.425 137.804C370.949 137.58 370.571 137.281 370.291 136.908C370.011 136.525 369.862 136.101 369.843 135.634H371.495C371.523 135.961 371.677 136.236 371.957 136.46C372.246 136.675 372.606 136.782 373.035 136.782C373.483 136.782 373.828 136.698 374.071 136.53C374.323 136.353 374.449 136.129 374.449 135.858C374.449 135.569 374.309 135.354 374.029 135.214C373.758 135.074 373.324 134.92 372.727 134.752C372.148 134.593 371.677 134.439 371.313 134.29C370.949 134.141 370.632 133.912 370.361 133.604C370.1 133.296 369.969 132.89 369.969 132.386C369.969 131.975 370.09 131.602 370.333 131.266C370.576 130.921 370.921 130.65 371.369 130.454C371.826 130.258 372.349 130.16 372.937 130.16C373.814 130.16 374.519 130.384 375.051 130.832C375.592 131.271 375.882 131.873 375.919 132.638H374.323C374.295 132.293 374.155 132.017 373.903 131.812C373.651 131.607 373.31 131.504 372.881 131.504C372.461 131.504 372.139 131.583 371.915 131.742C371.691 131.901 371.579 132.111 371.579 132.372C371.579 132.577 371.654 132.75 371.803 132.89C371.952 133.03 372.134 133.142 372.349 133.226C372.564 133.301 372.881 133.399 373.301 133.52C373.861 133.669 374.318 133.823 374.673 133.982C375.037 134.131 375.35 134.355 375.611 134.654C375.872 134.953 376.008 135.349 376.017 135.844C376.017 136.283 375.896 136.675 375.653 137.02C375.41 137.365 375.065 137.636 374.617 137.832C374.178 138.028 373.66 138.126 373.063 138.126ZM378.385 138.098C378.096 138.098 377.853 138 377.657 137.804C377.461 137.608 377.363 137.365 377.363 137.076C377.363 136.787 377.461 136.544 377.657 136.348C377.853 136.152 378.096 136.054 378.385 136.054C378.665 136.054 378.903 136.152 379.099 136.348C379.295 136.544 379.393 136.787 379.393 137.076C379.393 137.365 379.295 137.608 379.099 137.804C378.903 138 378.665 138.098 378.385 138.098Z" fill="#110A3A"/>
<rect y="6" width="253" height="263" fill="#110A3A"/>
<rect x="22" y="109" width="162" height="10" rx="1" fill="white"/>
<rect x="22" y="127" width="84" height="10" rx="1" fill="white"/>
<rect x="22" y="91" width="126" height="10" rx="1" fill="white"/>
<rect x="22" y="55" width="162" height="10" rx="1" fill="white"/>
<rect x="22" y="73" width="84" height="10" rx="1" fill="white"/>
<path d="M278.344 46.224H282.024V48H276.104V36.832H278.344V46.224ZM287.384 48.144C286.53 48.144 285.762 47.9573 285.08 47.584C284.397 47.2 283.858 46.6613 283.464 45.968C283.08 45.2747 282.888 44.4747 282.888 43.568C282.888 42.6613 283.085 41.8613 283.48 41.168C283.885 40.4747 284.434 39.9413 285.128 39.568C285.821 39.184 286.594 38.992 287.448 38.992C288.301 38.992 289.074 39.184 289.768 39.568C290.461 39.9413 291.005 40.4747 291.4 41.168C291.805 41.8613 292.008 42.6613 292.008 43.568C292.008 44.4747 291.8 45.2747 291.384 45.968C290.978 46.6613 290.424 47.2 289.72 47.584C289.026 47.9573 288.248 48.144 287.384 48.144ZM287.384 46.192C287.789 46.192 288.168 46.096 288.52 45.904C288.882 45.7013 289.17 45.4027 289.384 45.008C289.597 44.6133 289.704 44.1333 289.704 43.568C289.704 42.7253 289.48 42.08 289.032 41.632C288.594 41.1733 288.056 40.944 287.416 40.944C286.776 40.944 286.237 41.1733 285.8 41.632C285.373 42.08 285.16 42.7253 285.16 43.568C285.16 44.4107 285.368 45.0613 285.784 45.52C286.21 45.968 286.744 46.192 287.384 46.192ZM297.123 38.992C297.784 38.992 298.366 39.1253 298.867 39.392C299.368 39.648 299.763 39.984 300.051 40.4V39.136H302.307V48.064C302.307 48.8853 302.142 49.616 301.811 50.256C301.48 50.9067 300.984 51.4187 300.323 51.792C299.662 52.176 298.862 52.368 297.923 52.368C296.664 52.368 295.63 52.0747 294.819 51.488C294.019 50.9013 293.566 50.1013 293.459 49.088H295.683C295.8 49.4933 296.051 49.8133 296.435 50.048C296.83 50.2933 297.304 50.416 297.859 50.416C298.51 50.416 299.038 50.2187 299.443 49.824C299.848 49.44 300.051 48.8533 300.051 48.064V46.688C299.763 47.104 299.363 47.4507 298.851 47.728C298.35 48.0053 297.774 48.144 297.123 48.144C296.376 48.144 295.694 47.952 295.075 47.568C294.456 47.184 293.966 46.6453 293.603 45.952C293.251 45.248 293.075 44.4427 293.075 43.536C293.075 42.64 293.251 41.8453 293.603 41.152C293.966 40.4587 294.451 39.9253 295.059 39.552C295.678 39.1787 296.366 38.992 297.123 38.992ZM300.051 43.568C300.051 43.024 299.944 42.56 299.731 42.176C299.518 41.7813 299.23 41.4827 298.867 41.28C298.504 41.0667 298.115 40.96 297.699 40.96C297.283 40.96 296.899 41.0613 296.547 41.264C296.195 41.4667 295.907 41.7653 295.683 42.16C295.47 42.544 295.363 43.0027 295.363 43.536C295.363 44.0693 295.47 44.5387 295.683 44.944C295.907 45.3387 296.195 45.6427 296.547 45.856C296.91 46.0693 297.294 46.176 297.699 46.176C298.115 46.176 298.504 46.0747 298.867 45.872C299.23 45.6587 299.518 45.36 299.731 44.976C299.944 44.5813 300.051 44.112 300.051 43.568ZM308.431 48.144C307.577 48.144 306.809 47.9573 306.127 47.584C305.444 47.2 304.905 46.6613 304.511 45.968C304.127 45.2747 303.935 44.4747 303.935 43.568C303.935 42.6613 304.132 41.8613 304.527 41.168C304.932 40.4747 305.481 39.9413 306.175 39.568C306.868 39.184 307.641 38.992 308.495 38.992C309.348 38.992 310.121 39.184 310.815 39.568C311.508 39.9413 312.052 40.4747 312.447 41.168C312.852 41.8613 313.055 42.6613 313.055 43.568C313.055 44.4747 312.847 45.2747 312.431 45.968C312.025 46.6613 311.471 47.2 310.767 47.584C310.073 47.9573 309.295 48.144 308.431 48.144ZM308.431 46.192C308.836 46.192 309.215 46.096 309.567 45.904C309.929 45.7013 310.217 45.4027 310.431 45.008C310.644 44.6133 310.751 44.1333 310.751 43.568C310.751 42.7253 310.527 42.08 310.079 41.632C309.641 41.1733 309.103 40.944 308.463 40.944C307.823 40.944 307.284 41.1733 306.847 41.632C306.42 42.08 306.207 42.7253 306.207 43.568C306.207 44.4107 306.415 45.0613 306.831 45.52C307.257 45.968 307.791 46.192 308.431 46.192Z" fill="#110A3A"/>
<rect x="22" y="37" width="126" height="10" rx="1" fill="white"/>
<path d="M288.712 76.768V88H285.976V81.264L283.464 88H281.256L278.728 81.248V88H275.992V76.768H279.224L282.376 84.544L285.496 76.768H288.712ZM294.744 88.128C293.869 88.128 293.08 87.9413 292.376 87.568C291.682 87.1947 291.133 86.6613 290.728 85.968C290.333 85.2747 290.136 84.464 290.136 83.536C290.136 82.6187 290.338 81.8133 290.743 81.12C291.149 80.416 291.704 79.8773 292.408 79.504C293.112 79.1307 293.901 78.944 294.776 78.944C295.65 78.944 296.44 79.1307 297.144 79.504C297.848 79.8773 298.402 80.416 298.808 81.12C299.213 81.8133 299.416 82.6187 299.416 83.536C299.416 84.4533 299.208 85.264 298.792 85.968C298.386 86.6613 297.826 87.1947 297.112 87.568C296.408 87.9413 295.618 88.128 294.744 88.128ZM294.744 85.76C295.266 85.76 295.709 85.568 296.072 85.184C296.445 84.8 296.632 84.2507 296.632 83.536C296.632 82.8213 296.45 82.272 296.088 81.888C295.736 81.504 295.298 81.312 294.776 81.312C294.242 81.312 293.8 81.504 293.448 81.888C293.096 82.2613 292.92 82.8107 292.92 83.536C292.92 84.2507 293.09 84.8 293.432 85.184C293.784 85.568 294.221 85.76 294.744 85.76ZM306.307 78.976C307.352 78.976 308.184 79.3173 308.803 80C309.432 80.672 309.747 81.6 309.747 82.784V88H307.027V83.152C307.027 82.5547 306.872 82.0907 306.563 81.76C306.254 81.4293 305.838 81.264 305.315 81.264C304.792 81.264 304.376 81.4293 304.067 81.76C303.758 82.0907 303.603 82.5547 303.603 83.152V88H300.867V79.072H303.603V80.256C303.88 79.8613 304.254 79.552 304.723 79.328C305.192 79.0933 305.72 78.976 306.307 78.976ZM320.015 85.68V88H318.623C317.631 88 316.858 87.76 316.303 87.28C315.748 86.7893 315.471 85.9947 315.471 84.896V81.344H314.383V79.072H315.471V76.896H318.207V79.072H319.999V81.344H318.207V84.928C318.207 85.1947 318.271 85.3867 318.399 85.504C318.527 85.6213 318.74 85.68 319.039 85.68H320.015ZM322.915 78.144C322.435 78.144 322.04 78.0053 321.731 77.728C321.432 77.44 321.283 77.088 321.283 76.672C321.283 76.2453 321.432 75.8933 321.731 75.616C322.04 75.328 322.435 75.184 322.915 75.184C323.384 75.184 323.768 75.328 324.067 75.616C324.376 75.8933 324.531 76.2453 324.531 76.672C324.531 77.088 324.376 77.44 324.067 77.728C323.768 78.0053 323.384 78.144 322.915 78.144ZM324.275 79.072V88H321.539V79.072H324.275ZM331.234 85.68V88H329.842C328.85 88 328.076 87.76 327.522 87.28C326.967 86.7893 326.69 85.9947 326.69 84.896V81.344H325.602V79.072H326.69V76.896H329.426V79.072H331.218V81.344H329.426V84.928C329.426 85.1947 329.49 85.3867 329.618 85.504C329.746 85.6213 329.959 85.68 330.258 85.68H331.234ZM335.494 80.56C335.814 80.0693 336.214 79.6853 336.694 79.408C337.174 79.12 337.707 78.976 338.294 78.976V81.872H337.542C336.859 81.872 336.347 82.0213 336.006 82.32C335.664 82.608 335.494 83.12 335.494 83.856V88H332.758V79.072H335.494V80.56ZM348.017 83.392C348.017 83.648 348.001 83.9147 347.969 84.192H341.777C341.82 84.7467 341.996 85.1733 342.305 85.472C342.625 85.76 343.015 85.904 343.473 85.904C344.156 85.904 344.631 85.616 344.897 85.04H347.809C347.66 85.6267 347.388 86.1547 346.993 86.624C346.609 87.0933 346.124 87.4613 345.537 87.728C344.951 87.9947 344.295 88.128 343.569 88.128C342.695 88.128 341.916 87.9413 341.233 87.568C340.551 87.1947 340.017 86.6613 339.633 85.968C339.249 85.2747 339.057 84.464 339.057 83.536C339.057 82.608 339.244 81.7973 339.617 81.104C340.001 80.4107 340.535 79.8773 341.217 79.504C341.9 79.1307 342.684 78.944 343.569 78.944C344.433 78.944 345.201 79.1253 345.873 79.488C346.545 79.8507 347.068 80.368 347.441 81.04C347.825 81.712 348.017 82.496 348.017 83.392ZM345.217 82.672C345.217 82.2027 345.057 81.8293 344.737 81.552C344.417 81.2747 344.017 81.136 343.537 81.136C343.079 81.136 342.689 81.2693 342.369 81.536C342.06 81.8027 341.868 82.1813 341.793 82.672H345.217Z" fill="#110A3A"/>
<rect x="275" y="152" width="61" height="25" rx="2" fill="#110A3A"/>
<path d="M290.89 163.31C291.083 163.043 291.347 162.827 291.68 162.66C292.02 162.487 292.397 162.4 292.81 162.4C293.297 162.4 293.737 162.517 294.13 162.75C294.523 162.983 294.833 163.317 295.06 163.75C295.287 164.177 295.4 164.667 295.4 165.22C295.4 165.773 295.287 166.27 295.06 166.71C294.833 167.143 294.52 167.483 294.12 167.73C293.727 167.97 293.29 168.09 292.81 168.09C292.383 168.09 292.003 168.007 291.67 167.84C291.343 167.673 291.083 167.46 290.89 167.2V168H289.75V160.6H290.89V163.31ZM294.24 165.22C294.24 164.84 294.16 164.513 294 164.24C293.847 163.96 293.64 163.75 293.38 163.61C293.127 163.463 292.853 163.39 292.56 163.39C292.273 163.39 292 163.463 291.74 163.61C291.487 163.757 291.28 163.97 291.12 164.25C290.967 164.53 290.89 164.86 290.89 165.24C290.89 165.62 290.967 165.953 291.12 166.24C291.28 166.52 291.487 166.733 291.74 166.88C292 167.027 292.273 167.1 292.56 167.1C292.853 167.1 293.127 167.027 293.38 166.88C293.64 166.727 293.847 166.507 294 166.22C294.16 165.933 294.24 165.6 294.24 165.22ZM301.517 162.49V168H300.377V167.35C300.197 167.577 299.961 167.757 299.667 167.89C299.381 168.017 299.074 168.08 298.747 168.08C298.314 168.08 297.924 167.99 297.577 167.81C297.237 167.63 296.967 167.363 296.767 167.01C296.574 166.657 296.477 166.23 296.477 165.73V162.49H297.607V165.56C297.607 166.053 297.731 166.433 297.977 166.7C298.224 166.96 298.561 167.09 298.987 167.09C299.414 167.09 299.751 166.96 299.997 166.7C300.251 166.433 300.377 166.053 300.377 165.56V162.49H301.517ZM304.351 163.42V166.47C304.351 166.677 304.398 166.827 304.491 166.92C304.591 167.007 304.758 167.05 304.991 167.05H305.691V168H304.791C304.278 168 303.885 167.88 303.611 167.64C303.338 167.4 303.201 167.01 303.201 166.47V163.42H302.551V162.49H303.201V161.12H304.351V162.49H305.691V163.42H304.351ZM308.072 163.42V166.47C308.072 166.677 308.119 166.827 308.212 166.92C308.312 167.007 308.479 167.05 308.712 167.05H309.412V168H308.512C307.999 168 307.606 167.88 307.332 167.64C307.059 167.4 306.922 167.01 306.922 166.47V163.42H306.272V162.49H306.922V161.12H308.072V162.49H309.412V163.42H308.072ZM312.853 168.09C312.333 168.09 311.863 167.973 311.443 167.74C311.023 167.5 310.693 167.167 310.453 166.74C310.213 166.307 310.093 165.807 310.093 165.24C310.093 164.68 310.216 164.183 310.463 163.75C310.71 163.317 311.046 162.983 311.473 162.75C311.9 162.517 312.376 162.4 312.903 162.4C313.43 162.4 313.906 162.517 314.333 162.75C314.76 162.983 315.096 163.317 315.343 163.75C315.59 164.183 315.713 164.68 315.713 165.24C315.713 165.8 315.586 166.297 315.333 166.73C315.08 167.163 314.733 167.5 314.293 167.74C313.86 167.973 313.38 168.09 312.853 168.09ZM312.853 167.1C313.146 167.1 313.42 167.03 313.673 166.89C313.933 166.75 314.143 166.54 314.303 166.26C314.463 165.98 314.543 165.64 314.543 165.24C314.543 164.84 314.466 164.503 314.313 164.23C314.16 163.95 313.956 163.74 313.703 163.6C313.45 163.46 313.176 163.39 312.883 163.39C312.59 163.39 312.316 163.46 312.063 163.6C311.816 163.74 311.62 163.95 311.473 164.23C311.326 164.503 311.253 164.84 311.253 165.24C311.253 165.833 311.403 166.293 311.703 166.62C312.01 166.94 312.393 167.1 312.853 167.1ZM319.62 162.4C320.053 162.4 320.44 162.49 320.78 162.67C321.127 162.85 321.397 163.117 321.59 163.47C321.783 163.823 321.88 164.25 321.88 164.75V168H320.75V164.92C320.75 164.427 320.627 164.05 320.38 163.79C320.133 163.523 319.797 163.39 319.37 163.39C318.943 163.39 318.603 163.523 318.35 163.79C318.103 164.05 317.98 164.427 317.98 164.92V168H316.84V162.49H317.98V163.12C318.167 162.893 318.403 162.717 318.69 162.59C318.983 162.463 319.293 162.4 319.62 162.4Z" fill="white"/>
<rect x="22" y="55" width="162" height="10" rx="1" fill="white"/>
<rect x="22" y="73" width="84" height="10" rx="1" fill="white"/>
<rect x="22" y="37" width="126" height="10" rx="1" fill="white"/>
<defs>
<filter id="filter0_d" x="243" y="0" width="358" height="283" filterUnits="userSpaceOnUse" color-interpolation-filters="sRGB">
<feFlood flood-opacity="0" result="BackgroundImageFix"/>
<feColorMatrix in="SourceAlpha" type="matrix" values="0 0 0 0 0 0 0 0 0 0 0 0 0 0 0 0 0 0 127 0"/>
<feOffset dy="4"/>
<feGaussianBlur stdDeviation="5"/>
<feColorMatrix type="matrix" values="0 0 0 0 0 0 0 0 0 0 0 0 0 0 0 0 0 0 0.1 0"/>
<feBlend mode="normal" in2="BackgroundImageFix" result="effect1_dropShadow"/>
<feBlend mode="normal" in="SourceGraphic" in2="effect1_dropShadow" result="shape"/>
</filter>
</defs>
</svg>
